<?xml version="1.0" encoding="UTF-8" standalone="no"?>
<svg
   xmlns:dc="http://purl.org/dc/elements/1.1/"
   xmlns:cc="http://creativecommons.org/ns#"
   xmlns:rdf="http://www.w3.org/1999/02/22-rdf-syntax-ns#"
   xmlns:svg="http://www.w3.org/2000/svg"
   xmlns="http://www.w3.org/2000/svg"
   xmlns:sodipodi="http://sodipodi.sourceforge.net/DTD/sodipodi-0.dtd"
   xmlns:inkscape="http://www.inkscape.org/namespaces/inkscape"
   inkscape:version="1.0 (4035a4fb49, 2020-05-01)"
   sodipodi:docname="icons.svg"
   width="312.06332"
   height="44.341526"
   viewBox="0 0 82.566753 11.732028"
   version="1.1"
   id="svg8">
  <sodipodi:namedview
     inkscape:current-layer="svg8"
     inkscape:window-maximized="1"
     inkscape:window-y="-8"
     inkscape:window-x="1912"
     inkscape:cy="22.341505"
     inkscape:cx="132.00002"
     inkscape:zoom="3.018797"
     fit-margin-left="1"
     fit-margin-bottom="1"
     fit-margin-right="1"
     fit-margin-top="1"
     showgrid="false"
     id="namedview933"
     inkscape:window-height="1377"
     inkscape:window-width="2560"
     inkscape:pageshadow="2"
     inkscape:pageopacity="0"
     guidetolerance="10"
     gridtolerance="10"
     objecttolerance="10"
     borderopacity="1"
     bordercolor="#666666"
     pagecolor="#ffffff" />
  <defs
     id="defs2" />
  <metadata
     id="metadata5">
    <rdf:RDF>
      <cc:Work
         rdf:about="">
        <dc:format>image/svg+xml</dc:format>
        <dc:type
           rdf:resource="http://purl.org/dc/dcmitype/StillImage" />
        <dc:title></dc:title>
      </cc:Work>
    </rdf:RDF>
  </metadata>
  <g
     transform="translate(-0.26457867,-0.17422682)"
     id="g1037">
    <g
       aria-label="phone"
       style="font-style:normal;font-variant:normal;font-weight:normal;font-stretch:normal;font-size:14.8167px;line-height:1.25;font-family:Roboto;-inkscape-font-specification:Roboto;letter-spacing:0px;word-spacing:0px;fill:#000000;fill-opacity:1;stroke:none;stroke-width:0.926042"
       id="text4487"
       transform="translate(-14.589884,-102.41784)">
      <path
         d="m 17.347334,107.75085 q 1.389063,2.69131 4.080371,4.08037 l 1.360124,-1.36012 q 0.289388,-0.28939 0.636653,-0.1447 1.041797,0.34727 2.199349,0.34727 0.26045,0 0.434082,0.17363 0.173633,0.17363 0.173633,0.43408 v 2.17041 q 0,0.26045 -0.173633,0.43408 -0.173632,0.17364 -0.434082,0.17364 -4.34082,0 -7.437272,-3.06752 -3.067513,-3.09645 -3.067513,-7.43727 0,-0.26045 0.173633,-0.43408 0.173633,-0.17363 0.434082,-0.17363 h 2.17041 q 0.26045,0 0.434082,0.17363 0.173633,0.17363 0.173633,0.43408 0,1.15755 0.347266,2.19935 0.115755,0.37621 -0.144694,0.63665 z"
         style="font-style:normal;font-variant:normal;font-weight:normal;font-stretch:normal;font-family:'Material Icons';-inkscape-font-specification:'Material Icons';fill:#ffffff;stroke-width:0.926042"
         id="path4743" />
    </g>
    <g
       aria-label="email"
       style="font-style:normal;font-variant:normal;font-weight:normal;font-stretch:normal;font-size:13.3559px;line-height:1.25;font-family:Roboto;-inkscape-font-specification:Roboto;letter-spacing:0px;word-spacing:0px;fill:#000000;fill-opacity:1;stroke:none;stroke-width:0.834742"
       id="text4499"
       transform="translate(-14.589884,-102.41784)">
      <path
         d="m 36.777616,106.28597 v -1.12168 l -4.460651,2.79117 -4.460652,-2.79117 v 1.12168 l 4.460652,2.76509 z m 0,-2.24337 q 0.443457,0 0.756485,0.33912 0.339114,0.33911 0.339114,0.78257 v 6.67793 q 0,0.44346 -0.339114,0.78257 -0.313028,0.33912 -0.756485,0.33912 h -8.921303 q -0.443456,0 -0.78257,-0.33912 -0.313028,-0.33911 -0.313028,-0.78257 v -6.67793 q 0,-0.44346 0.313028,-0.78257 0.339114,-0.33912 0.78257,-0.33912 z"
         style="font-style:normal;font-variant:normal;font-weight:normal;font-stretch:normal;font-family:'Material Icons';-inkscape-font-specification:'Material Icons';fill:#ffffff;stroke-width:0.834742"
         id="path4746" />
    </g>
    <g
       id="g4503"
       transform="matrix(0.03728976,0,0,0.03728976,3.669266,-19.679748)"
       style="fill:#000000">
      <path
         id="path4501"
         d="m 633.9,812.04 c 112.46,0 173.96,-93.168 173.96,-173.96 0,-2.6463 -0.0539,-5.2806 -0.1726,-7.903 11.938,-8.6302 22.314,-19.4 30.498,-31.66 -10.955,4.8694 -22.744,8.1474 -35.111,9.6255 12.623,-7.5693 22.314,-19.543 26.886,-33.817 -11.813,7.0031 -24.895,12.093 -38.824,14.841 -11.157,-11.884 -27.041,-19.317 -44.629,-19.317 -33.764,0 -61.144,27.381 -61.144,61.132 0,4.7978 0.5364,9.4646 1.5854,13.941 -50.815,-2.5569 -95.874,-26.886 -126.03,-63.88 -5.2508,9.0354 -8.2785,19.531 -8.2785,30.73 0,21.212 10.794,39.938 27.208,50.893 -10.031,-0.30992 -19.454,-3.0635 -27.69,-7.6468 -0.009,0.25652 -0.009,0.50661 -0.009,0.78077 0,29.61 21.075,54.332 49.051,59.934 -5.1376,1.4006 -10.543,2.1516 -16.122,2.1516 -3.9336,0 -7.766,-0.38716 -11.491,-1.1026 7.7838,24.293 30.355,41.971 57.115,42.465 -20.926,16.402 -47.287,26.171 -75.937,26.171 -4.929,0 -9.7983,-0.28036 -14.584,-0.84634 27.059,17.344 59.189,27.464 93.722,27.464"
         style="fill:#333333" />
    </g>
    <g
       id="g4575"
       transform="matrix(0.02533942,0,0,0.02533942,35.454163,0.52913)">
      <g
         id="g4519">
        <path
           id="path4517"
           d="M 409.132,114.573 C 389.524,80.977 362.927,54.379 329.334,34.773 295.736,15.166 259.057,5.365 219.271,5.365 c -39.781,0 -76.472,9.804 -110.063,29.408 -33.596,19.605 -60.192,46.204 -79.8,79.8 C 9.803,148.168 0,184.854 0,224.63 c 0,47.78 13.94,90.745 41.827,128.906 27.884,38.164 63.906,64.572 108.063,79.227 5.14,0.954 8.945,0.283 11.419,-1.996 2.475,-2.282 3.711,-5.14 3.711,-8.562 0,-0.571 -0.049,-5.708 -0.144,-15.417 -0.098,-9.709 -0.144,-18.179 -0.144,-25.406 l -6.567,1.136 c -4.187,0.767 -9.469,1.092 -15.846,1 -6.374,-0.089 -12.991,-0.757 -19.842,-1.999 -6.854,-1.231 -13.229,-4.086 -19.13,-8.559 -5.898,-4.473 -10.085,-10.328 -12.56,-17.556 l -2.855,-6.57 c -1.903,-4.374 -4.899,-9.233 -8.992,-14.559 -4.093,-5.331 -8.232,-8.945 -12.419,-10.848 l -1.999,-1.431 c -1.332,-0.951 -2.568,-2.098 -3.711,-3.429 -1.142,-1.331 -1.997,-2.663 -2.568,-3.997 -0.572,-1.335 -0.098,-2.43 1.427,-3.289 1.525,-0.859 4.281,-1.276 8.28,-1.276 l 5.708,0.853 c 3.807,0.763 8.516,3.042 14.133,6.851 5.614,3.806 10.229,8.754 13.846,14.842 4.38,7.806 9.657,13.754 15.846,17.847 6.184,4.093 12.419,6.136 18.699,6.136 6.28,0 11.704,-0.476 16.274,-1.423 4.565,-0.952 8.848,-2.383 12.847,-4.285 1.713,-12.758 6.377,-22.559 13.988,-29.41 -10.848,-1.14 -20.601,-2.857 -29.264,-5.14 -8.658,-2.286 -17.605,-5.996 -26.835,-11.14 -9.235,-5.137 -16.896,-11.516 -22.985,-19.126 -6.09,-7.614 -11.088,-17.61 -14.987,-29.979 -3.901,-12.374 -5.852,-26.648 -5.852,-42.826 0,-23.035 7.52,-42.637 22.557,-58.817 -7.044,-17.318 -6.379,-36.732 1.997,-58.24 5.52,-1.715 13.706,-0.428 24.554,3.853 10.85,4.283 18.794,7.952 23.84,10.994 5.046,3.041 9.089,5.618 12.135,7.708 17.705,-4.947 35.976,-7.421 54.818,-7.421 18.842,0 37.117,2.474 54.823,7.421 l 10.849,-6.849 c 7.419,-4.57 16.18,-8.758 26.262,-12.565 10.088,-3.805 17.802,-4.853 23.134,-3.138 8.562,21.509 9.325,40.922 2.279,58.24 15.036,16.18 22.559,35.787 22.559,58.817 0,16.178 -1.958,30.497 -5.853,42.966 -3.9,12.471 -8.941,22.457 -15.125,29.979 -6.191,7.521 -13.901,13.85 -23.131,18.986 -9.232,5.14 -18.182,8.85 -26.84,11.136 -8.662,2.286 -18.415,4.004 -29.263,5.146 9.894,8.562 14.842,22.077 14.842,40.539 v 60.237 c 0,3.422 1.19,6.279 3.572,8.562 2.379,2.279 6.136,2.95 11.276,1.995 44.163,-14.653 80.185,-41.062 108.068,-79.226 27.88,-38.161 41.825,-81.126 41.825,-128.906 -0.01,-39.771 -9.818,-76.454 -29.414,-110.049 z"
           style="fill:#333333" />
      </g>
      <g
         id="g4521" />
      <g
         id="g4523" />
      <g
         id="g4525" />
      <g
         id="g4527" />
      <g
         id="g4529" />
      <g
         id="g4531" />
      <g
         id="g4533" />
      <g
         id="g4535" />
      <g
         id="g4537" />
      <g
         id="g4539" />
      <g
         id="g4541" />
      <g
         id="g4543" />
      <g
         id="g4545" />
      <g
         id="g4547" />
      <g
         id="g4549" />
    </g>
    <g
       id="g4583"
       transform="matrix(0.01133929,0,0,0.01133929,46.982435,0.41577)">
      <path
         id="path4581"
         d="M 990,622.5 V 990 H 10 V 622.5 h 122.5 v 245 h 735 v -245 z M 193.8,683.8 H 806.3 V 806.3 H 193.8 Z m 14.4,-132.6 26.5,-119.6 598,132.5 -26.5,119.6 z m 69.4,-245.9 51.8,-111 555.1,258.8 -51.8,111 z M 959.1,355.9 884.5,453.1 398.6,80.3 452.5,10 h 55.7 z"
         style="fill:#333333" />
    </g>
    <g
       id="g4655"
       transform="matrix(0.02178922,0,0,0.02178922,58.737499,0.52917)">
      <g
         id="g4598">
        <g
           id="post-linkedin">
          <path
             id="path4595"
             d="M 459,0 H 51 C 22.95,0 0,22.95 0,51 v 408 c 0,28.05 22.95,51 51,51 h 408 c 28.05,0 51,-22.95 51,-51 V 51 C 510,22.95 487.05,0 459,0 Z M 153,433.5 H 76.5 V 204 H 153 Z M 114.75,160.65 c -25.5,0 -45.9,-20.4 -45.9,-45.9 0,-25.5 20.4,-45.9 45.9,-45.9 25.5,0 45.9,20.4 45.9,45.9 0,25.5 -20.4,45.9 -45.9,45.9 z M 433.5,433.5 H 357 V 298.35 c 0,-20.399 -17.85,-38.25 -38.25,-38.25 -20.4,0 -38.25,17.851 -38.25,38.25 V 433.5 H 204 V 204 h 76.5 v 30.6 c 12.75,-20.4 40.8,-35.7 63.75,-35.7 48.45,0 89.25,40.8 89.25,89.25 z"
             style="fill:#333333" />
        </g>
      </g>
      <g
         id="g4600" />
      <g
         id="g4602" />
      <g
         id="g4604" />
      <g
         id="g4606" />
      <g
         id="g4608" />
      <g
         id="g4610" />
      <g
         id="g4612" />
      <g
         id="g4614" />
      <g
         id="g4616" />
      <g
         id="g4618" />
      <g
         id="g4620" />
      <g
         id="g4622" />
      <g
         id="g4624" />
      <g
         id="g4626" />
      <g
         id="g4628" />
    </g>
    <path
       id="rect935"
       style="fill:#333333;fill-opacity:1;stroke-width:0.193988"
       d="m 77.045502,0.43881015 c -0.738014,0 -1.476115,0.2826172 -2.041619,0.84812105 l -2.631369,2.6313691 c -1.131008,1.1310076 -1.131008,2.9522296 0,4.0832372 l 2.631369,2.6313695 c 1.131007,1.131007 2.952229,1.131007 4.083237,0 l 2.631369,-2.6313695 c 1.131007,-1.1310076 1.131007,-2.9522296 0,-4.0832372 L 79.08712,1.2869312 C 78.521616,0.72142735 77.783514,0.43881015 77.045502,0.43881015 Z m 0,3.46814145 A 2.0530911,2.0530911 0 0 1 79.098469,5.959919 2.0530911,2.0530911 0 0 1 77.045502,8.0128861 2.0530911,2.0530911 0 0 1 74.992534,5.959919 2.0530911,2.0530911 0 0 1 77.045502,3.9069516 Z" />
  </g>
</svg>
